<?xml version="1.0" encoding="UTF-8"?>
<svg xmlns="http://www.w3.org/2000/svg" xmlns:xlink="http://www.w3.org/1999/xlink" viewBox="0 0 96 96" width="96px" height="96px">
<defs>
<linearGradient id="linear0" gradientUnits="userSpaceOnUse" x1="35.324501" y1="35.324501" x2="136.675507" y2="136.675507" gradientTransform="matrix(0.55814,0,0,0.55814,0,0)">
<stop offset="0" style="stop-color:rgb(61.56863%,100%,80.784315%);stop-opacity:1;"/>
<stop offset="1" style="stop-color:rgb(31.37255%,81.960785%,55.29412%);stop-opacity:1;"/>
</linearGradient>
<linearGradient id="linear1" gradientUnits="userSpaceOnUse" x1="46.583328" y1="88.841583" x2="129" y2="88.841583" gradientTransform="matrix(0.55814,0,0,0.55814,0,0)">
<stop offset="0.824" style="stop-color:rgb(7.450981%,36.470589%,21.176471%);stop-opacity:1;"/>
<stop offset="0.931" style="stop-color:rgb(7.058824%,34.901962%,20%);stop-opacity:1;"/>
<stop offset="1" style="stop-color:rgb(6.666667%,32.156864%,18.431373%);stop-opacity:1;"/>
</linearGradient>
</defs>
<g id="surface100549299">
<path style=" stroke:none;fill-rule:nonzero;fill:url(#linear0);" d="M 88 48 C 88 70.089844 70.089844 88 48 88 C 25.910156 88 8 70.089844 8 48 C 8 25.910156 25.910156 8 48 8 C 70.089844 8 88 25.910156 88 48 Z M 88 48 "/>
<path style=" stroke:none;fill-rule:nonzero;fill:url(#linear1);" d="M 42.585938 65.414062 L 26.585938 49.414062 C 25.804688 48.632812 25.804688 47.367188 26.585938 46.585938 L 29.414062 43.757812 C 30.195312 42.976562 31.460938 42.976562 32.242188 43.757812 L 44 55.515625 L 65.757812 33.757812 C 66.539062 32.976562 67.804688 32.976562 68.585938 33.757812 L 71.414062 36.585938 C 72.195312 37.367188 72.195312 38.632812 71.414062 39.414062 L 45.414062 65.414062 C 44.632812 66.195312 43.367188 66.195312 42.585938 65.414062 Z M 42.585938 65.414062 "/>
</g>
</svg>
